<?xml version="1.0" standalone="no"?>
<!DOCTYPE svg PUBLIC "-//W3C//DTD SVG 20010904//EN"
 "http://www.w3.org/TR/2001/REC-SVG-20010904/DTD/svg10.dtd">
<svg version="1.0" xmlns="http://www.w3.org/2000/svg"
 width="163.000000pt" height="163.000000pt" viewBox="0 0 163.000000 163.000000"
 preserveAspectRatio="xMidYMid meet">
<metadata>
Created by potrace 1.14, written by Peter Selinger 2001-2017
</metadata>
<g transform="translate(0.000000,163.000000) scale(0.100000,-0.100000)"
fill="#000000" stroke="none">
<path d="M244 1595 c-7 -5 -65 -97 -128 -203 l-116 -193 0 -577 c0 -507 2
-580 16 -600 l15 -22 779 0 779 0 15 22 c14 20 16 93 15 603 l-1 580 -121 200
-122 199 -559 1 c-358 0 -564 -4 -572 -10z m1074 -132 c21 -28 152 -249 152
-256 0 -4 -299 -7 -664 -7 l-665 0 83 138 c70 116 88 138 112 142 15 3 239 4
498 3 441 -2 471 -3 484 -20z m-879 -501 c15 -11 24 -32 27 -62 12 -104 41
-167 111 -235 131 -127 357 -120 482 15 60 65 84 122 95 220 4 29 13 51 27 63
28 23 45 22 73 -6 21 -21 23 -31 19 -77 -14 -169 -117 -317 -270 -387 -69 -32
-84 -35 -181 -39 -130 -5 -238 36 -329 123 -86 82 -138 189 -146 299 -4 50 -1
61 19 81 28 28 45 29 73 5z"/>
</g>
</svg>
